<svg width="514" height="514" viewBox="0 0 514 514" fill="none" xmlns="http://www.w3.org/2000/svg">
<circle cx="256.885" cy="256.885" r="256.885" fill="#B9FD50"/>
<path d="M144.307 367H66.9631V148.818H144.946C166.892 148.818 185.784 153.186 201.622 161.922C217.46 170.587 229.641 183.051 238.163 199.315C246.757 215.58 251.054 235.04 251.054 257.696C251.054 280.423 246.757 299.955 238.163 316.29C229.641 332.625 217.389 345.161 201.409 353.896C185.5 362.632 166.466 367 144.307 367ZM113.092 327.476H142.389C156.026 327.476 167.496 325.061 176.8 320.232C186.175 315.331 193.206 307.767 197.893 297.54C202.652 287.241 205.031 273.96 205.031 257.696C205.031 241.574 202.652 228.399 197.893 218.172C193.206 207.945 186.21 200.416 176.906 195.587C167.602 190.757 156.132 188.342 142.496 188.342H113.092V327.476ZM285.225 367V148.818H372.583C388.634 148.818 402.022 151.197 412.746 155.956C423.471 160.714 431.532 167.32 436.929 175.771C442.327 184.152 445.026 193.811 445.026 204.749C445.026 213.271 443.321 220.764 439.912 227.227C436.503 233.619 431.816 238.875 425.85 242.994C419.955 247.043 413.208 249.919 405.608 251.624V253.754C413.918 254.109 421.695 256.453 428.939 260.786C436.255 265.118 442.185 271.19 446.73 279.003C451.276 286.744 453.549 295.977 453.549 306.702C453.549 318.278 450.672 328.612 444.919 337.703C439.238 346.723 430.821 353.861 419.671 359.116C408.52 364.372 394.777 367 378.442 367H285.225ZM331.354 329.287H368.961C381.816 329.287 391.191 326.837 397.086 321.936C402.98 316.964 405.928 310.359 405.928 302.121C405.928 296.084 404.472 290.757 401.56 286.141C398.648 281.524 394.493 277.902 389.096 275.274C383.769 272.646 377.412 271.332 370.026 271.332H331.354V329.287ZM331.354 240.118H365.551C371.873 240.118 377.483 239.017 382.384 236.815C387.355 234.543 391.262 231.347 394.103 227.227C397.015 223.108 398.471 218.172 398.471 212.419C398.471 204.536 395.665 198.179 390.054 193.349C384.515 188.52 376.631 186.105 366.404 186.105H331.354V240.118Z" fill="black"/>
</svg>
